<svg xmlns="http://www.w3.org/2000/svg" width="26.338" height="26.338" viewBox="0 0 26.338 26.338"><defs><style>.a{fill:#fbbb00;}.b{fill:#518ef8;}.c{fill:#28b446;}.d{fill:#f14336;}</style></defs><path class="a" d="M5.837,147.072l-.917,3.423-3.351.071a13.192,13.192,0,0,1-.1-12.3h0l2.983.547,1.307,2.965a7.859,7.859,0,0,0,.074,5.292Z" transform="translate(0 -131.155)"/><path class="b" d="M274.277,208.176a13.164,13.164,0,0,1-4.694,12.73h0l-3.758-.192-.532-3.32a7.848,7.848,0,0,0,3.377-4.008h-7.042v-5.21h12.649Z" transform="translate(-248.169 -197.467)"/><path class="c" d="M50.352,316.931h0A13.173,13.173,0,0,1,30.509,312.9l4.268-3.493a7.832,7.832,0,0,0,11.286,4.01Z" transform="translate(-28.94 -293.492)"/><path class="d" d="M48.726,3.032,44.46,6.524a7.831,7.831,0,0,0-11.545,4.1l-4.29-3.512h0a13.172,13.172,0,0,1,20.1-4.081Z" transform="translate(-27.152)"/></svg>
