<svg xmlns="http://www.w3.org/2000/svg" width="39.56" height="40" viewBox="0 0 39.56 40"><path d="M-3959.271,1810.155s-8.428-5.987-7.683-16.9c0,0,4.08-6.308,15.739-7.261a15.523,15.523,0,0,1-3.288,5.618,22.231,22.231,0,0,0-2.49-2.067,15.1,15.1,0,0,1,1.963,2.967s-3.394,5.563-3.711,6.89c0,0-1.484,3,1.591,3.6,1.628.318,2.683.6,7.153-.1a37.926,37.926,0,0,1,1.59,4.715c.178.817.1,2.417,2.279,2.438.6,0,1.082.026,2.808-1.8,1.391-1.469,5.193-5.088,5.778-6.2,0,0,5.458.108,6.306,2.543,0,0,.953,3.393-7.472,7.631a20.9,20.9,0,0,1-8.57,1.777A20.569,20.569,0,0,1-3959.271,1810.155Zm13.567-3.708s-2.146-.133-2.862-3.764c-.021-.1,7.657-.635,7.791-.4-.054,1.368-3.75,4.163-4.9,4.163Zm9.723-6.625a38.216,38.216,0,0,0,2.8-4.331,13.365,13.365,0,0,1,1.829,3.557,9.326,9.326,0,0,0-1.273-4.512,55.03,55.03,0,0,0,2.169-6.439c.3-2.264,1.431-3.937-8.108-4.213,0,0-4.381-5.825-7.551-7.155-.955-.4-2.154-.677-2.983,2.821-.207.874-.715,2.941-.794,3.5,0,0-.08,1.313-1.23,1.431,0,0-9.343,1.472-15.225,3.816a20.563,20.563,0,0,1,15.5-13.832c4.82-1,12.118-1.034,18.521,6.677,0,0,8.03,8.426,3.5,20.032C-3928.826,1801.173-3935.345,1799.822-3935.981,1799.822Zm-19.2-.207a5.211,5.211,0,0,1,1.829-4.531s2.861,5.088,2.423,5.6a4.743,4.743,0,0,1-1.512.175C-3953.594,1800.86-3955.016,1800.616-3955.177,1799.615Zm2.214-5.568s3.865-6.945,4.5-8.639l9.222-.1s3.973,4.715,4.927,7.313c0,0-2.594,5.406-4.291,7.206,0,0-10.175.531-11.234.744A24.25,24.25,0,0,0-3952.962,1794.047Zm16.057-7.79c1.323-.849,2.779.273,3.284.954a2.725,2.725,0,0,1-.422,3.866C-3934.2,1790.072-3936.905,1786.257-3936.905,1786.257Zm-8.654-6.309a.916.916,0,0,1,1.353.023c2.891,2.1,3.476,3.554,3.476,3.554-2.086-.037-6.735.22-6.735.22A6.38,6.38,0,0,1-3945.559,1779.948Z" transform="translate(3967 -1773.999)" fill="#e4e4e4"/></svg>
