<svg xmlns="http://www.w3.org/2000/svg" width="144.892" height="144.892" viewBox="0 0 144.892 144.892"><defs><style>.a{fill:#f5c86e;}.b{fill:#fae196;}.c{fill:#f5b955;}.d{fill:#21343f;}</style></defs><g transform="translate(0 0)"><path class="a" d="M341.418,19,285.332,99.965l-5.846,8.439v28.339L300.8,115.914,289.914,95.6" transform="translate(-200.394 -13.623)"/><path class="b" d="M105.177,95.892,64,83.295,187.95,10V121.216l-61.975-18.96" transform="translate(-45.888 -7.17)"/><path class="c" d="M232.068,136.743l-18.715-34.064L294,19l-60.193,86.893Z" transform="translate(-152.976 -13.623)"/><path class="d" d="M182.182.372a2.83,2.83,0,0,0-2.843.022L127.48,31.06a2.83,2.83,0,0,0,2.881,4.872l37.208-22L98.263,85.841,63.792,75.3l44.986-26.6a2.83,2.83,0,0,0-2.881-4.872L55.389,73.689A2.83,2.83,0,0,0,56,78.831L97.168,91.425l18.162,33.057a.671.671,0,0,0,.059.089,2.822,2.822,0,0,0,4.4.572l20.883-20.409,39.281,12.018a2.83,2.83,0,0,0,3.658-2.706V2.83A2.83,2.83,0,0,0,182.182.372ZM157.457,32.578,115.484,93.169a2.831,2.831,0,0,0-.5,1.611v17.311l-12.4-22.573ZM120.64,116.4V98.606l13.864,4.241Zm1.7-23.189L177.95,12.934V110.22Z" transform="translate(-38.718 0)"/><path class="d" d="M85.248,345.477a2.83,2.83,0,0,0-4,0L54.828,371.895a2.83,2.83,0,0,0,4,4l26.418-26.418A2.83,2.83,0,0,0,85.248,345.477Z" transform="translate(-38.718 -247.116)"/><path class="d" d="M7.338,469.83.829,476.338a2.83,2.83,0,1,0,4,4l6.509-6.509a2.83,2.83,0,1,0-4-4Z" transform="translate(0 -336.278)"/><path class="d" d="M128.41,491.41a2.831,2.831,0,1,0,2,.829A2.846,2.846,0,0,0,128.41,491.41Z" transform="translate(-90.042 -352.345)"/><path class="d" d="M165.356,417.835l-13.993,13.993a2.83,2.83,0,1,0,4,4l13.993-13.993a2.83,2.83,0,0,0-4-4Z" transform="translate(-107.934 -298.997)"/><path class="d" d="M335.913,414.04,321.882,428.07a2.83,2.83,0,1,0,4,4l14.031-14.031a2.83,2.83,0,0,0-4-4Z" transform="translate(-230.198 -296.276)"/><path class="d" d="M269.26,139.04a2.831,2.831,0,1,0-2-.829A2.839,2.839,0,0,0,269.26,139.04Z" transform="translate(-191.032 -95.635)"/></g></svg>